<svg xmlns="http://www.w3.org/2000/svg" viewBox="0 0 800 500" width="100%" height="100%" style="font-family:Barlow, sans-serif;">
<text x="400" y="35" text-anchor="middle" font-size="18" font-weight="light" fill="#999596">Cold Start Startup Latency (µs/op - Log Scale)</text>
  <line x1="140" y1="60" x2="140" y2="440" stroke="#897966" stroke-width="1" />
  <text x="140" y="460" text-anchor="middle" font-size="11" fill="#897966">500 µs</text>
  <line x1="192" y1="60" x2="192" y2="440" stroke="#897966" stroke-width="1" />
  <text x="192" y="460" text-anchor="middle" font-size="11" fill="#897966">1,000 µs</text>
  <line x1="315" y1="60" x2="315" y2="440" stroke="#897966" stroke-width="1" />
  <text x="315" y="460" text-anchor="middle" font-size="11" fill="#897966">5,000 µs</text>
  <line x1="368" y1="60" x2="368" y2="440" stroke="#897966" stroke-width="1" />
  <text x="368" y="460" text-anchor="middle" font-size="11" fill="#897966">10,000 µs</text>
  <line x1="490" y1="60" x2="490" y2="440" stroke="#897966" stroke-width="1" />
  <text x="490" y="460" text-anchor="middle" font-size="11" fill="#897966">50,000 µs</text>
  <line x1="543" y1="60" x2="543" y2="440" stroke="#897966" stroke-width="1" />
  <text x="543" y="460" text-anchor="middle" font-size="11" fill="#897966">100,000 µs</text>
  <line x1="666" y1="60" x2="666" y2="440" stroke="#897966" stroke-width="1" />
  <text x="666" y="460" text-anchor="middle" font-size="11" fill="#897966">500,000 µs</text>
  <line x1="750" y1="60" x2="750" y2="440" stroke="#897966" stroke-width="1" />
  <text x="750" y="460" text-anchor="middle" font-size="11" fill="#897966">1.5s</text>
  <text x="120" y="105" text-anchor="end" font-size="13" font-weight="bold" fill="#897966">insane</text>
  <rect x="140" y="70" width="505" height="14" fill="#526cfe" rx="2" />
  <text x="650" y="81" font-size="11" fill="#897966">  381,773 us</text>
  <rect x="140" y="88" width="444" height="14" fill="#8484d5" rx="2" />
  <text x="589" y="99" font-size="11" fill="#897966">  170,828 us</text>
  <rect x="140" y="106" width="450" height="14" fill="#b69dac" rx="2" />
  <text x="595" y="117" font-size="11" fill="#897966">  186,072 us</text>
  <rect x="140" y="124" width="602" height="14" fill="#E8B583" rx="2" />
  <text x="747" y="135" font-size="11" fill="#897966">  1,355,067 us</text>
  <text x="120" y="200" text-anchor="end" font-size="13" font-weight="bold" fill="#897966">complex</text>
  <rect x="140" y="165" width="307" height="14" fill="#526cfe" rx="2" />
  <text x="452" y="176" font-size="11" fill="#897966">  28,456 us</text>
  <rect x="140" y="183" width="330" height="14" fill="#8484d5" rx="2" />
  <text x="475" y="194" font-size="11" fill="#897966">  38,117 us</text>
  <rect x="140" y="201" width="349" height="14" fill="#b69dac" rx="2" />
  <text x="494" y="212" font-size="11" fill="#897966">  49,389 us</text>
  <rect x="140" y="219" width="359" height="14" fill="#E8B583" rx="2" />
  <text x="504" y="230" font-size="11" fill="#897966">  55,982 us</text>
  <text x="120" y="295" text-anchor="end" font-size="13" font-weight="bold" fill="#897966">medium</text>
  <rect x="140" y="260" width="101" height="14" fill="#526cfe" rx="2" />
  <text x="246" y="271" font-size="11" fill="#897966">  1,885 us</text>
  <rect x="140" y="278" width="87" height="14" fill="#8484d5" rx="2" />
  <text x="232" y="289" font-size="11" fill="#897966">  1,582 us</text>
  <rect x="140" y="296" width="85" height="14" fill="#b69dac" rx="2" />
  <text x="230" y="307" font-size="11" fill="#897966">  1,526 us</text>
  <rect x="140" y="314" width="114" height="14" fill="#E8B583" rx="2" />
  <text x="259" y="325" font-size="11" fill="#897966">  2,238 us</text>
  <text x="120" y="390" text-anchor="end" font-size="13" font-weight="bold" fill="#897966">simple</text>
  <rect x="140" y="355" width="37" height="14" fill="#526cfe" rx="2" />
  <text x="182" y="366" font-size="11" fill="#897966">  823 us</text>
  <rect x="140" y="373" width="32" height="14" fill="#8484d5" rx="2" />
  <text x="177" y="384" font-size="11" fill="#897966">  764 us</text>
  <rect x="140" y="391" width="22" height="14" fill="#b69dac" rx="2" />
  <text x="167" y="402" font-size="11" fill="#897966">  674 us</text>
  <rect x="140" y="409" width="65" height="14" fill="#E8B583" rx="2" />
  <text x="210" y="420" font-size="11" fill="#897966">  1,179 us</text>
  <line x1="140" y1="60" x2="140" y2="440" stroke="#897966" stroke-width="1.5" />
  <rect x="200" y="480" width="12" height="12" fill="#526cfe" rx="2" />
  <text x="216" y="491" font-size="12" fill="#897966">Cascara</text>
  <rect x="330" y="480" width="12" height="12" fill="#8484d5" rx="2" />
  <text x="346" y="491" font-size="12" fill="#897966">lsLenient</text>
  <rect x="460" y="480" width="12" height="12" fill="#b69dac" rx="2" />
  <text x="476" y="491" font-size="12" fill="#897966">lsStrict</text>
  <rect x="590" y="480" width="12" height="12" fill="#E8B583" rx="2" />
  <text x="606" y="491" font-size="12" fill="#897966">SnakeYAML</text>
</svg>