<svg xmlns="http://www.w3.org/2000/svg" viewBox="0 0 800 500" width="100%" height="100%" style="font-family:Barlow, sans-serif;">
<text x="400" y="35" text-anchor="middle" font-size="18" font-weight="light" fill="#999596">Hot Throughput Peak Performance (ops/ms - Log Scale)</text>
  <line x1="140" y1="60" x2="140" y2="440" stroke="#897966" stroke-width="1" />
  <text x="140" y="460" text-anchor="middle" font-size="11" fill="#897966">0.001 ops/ms</text>
  <line x1="253" y1="60" x2="253" y2="440" stroke="#897966" stroke-width="1" />
  <text x="253" y="460" text-anchor="middle" font-size="11" fill="#897966">0.01 ops/ms</text>
  <line x1="366" y1="60" x2="366" y2="440" stroke="#897966" stroke-width="1" />
  <text x="366" y="460" text-anchor="middle" font-size="11" fill="#897966">0.1 ops/ms</text>
  <line x1="479" y1="60" x2="479" y2="440" stroke="#897966" stroke-width="1" />
  <text x="479" y="460" text-anchor="middle" font-size="11" fill="#897966">1.0 ops/ms</text>
  <line x1="592" y1="60" x2="592" y2="440" stroke="#897966" stroke-width="1" />
  <text x="592" y="460" text-anchor="middle" font-size="11" fill="#897966">10.0 ops/ms</text>
  <line x1="705" y1="60" x2="705" y2="440" stroke="#897966" stroke-width="1" />
  <text x="705" y="460" text-anchor="middle" font-size="11" fill="#897966">100.0 ops/ms</text>
  <line x1="750" y1="60" x2="750" y2="440" stroke="#897966" stroke-width="1" />
  <text x="750" y="460" text-anchor="middle" font-size="11" fill="#897966">250.0 ops/ms</text>
  <text x="120" y="105" text-anchor="end" font-size="13" font-weight="bold" fill="#897966">insane</text>
  <rect x="140" y="70" width="53" height="14" fill="#526cfe" rx="2" />
  <text x="198" y="81" font-size="11" fill="#897966">  0.003</text>
  <rect x="140" y="88" width="95" height="14" fill="#8484d5" rx="2" />
  <text x="240" y="99" font-size="11" fill="#897966">  0.007</text>
  <rect x="140" y="106" width="107" height="14" fill="#b69dac" rx="2" />
  <text x="252" y="117" font-size="11" fill="#897966">  0.009</text>
  <rect x="140" y="124" width="3" height="14" fill="#E8B583" rx="2" />
  <text x="148" y="135" font-size="11" fill="#897966">  0.001</text>
  <text x="120" y="200" text-anchor="end" font-size="13" font-weight="bold" fill="#897966">complex</text>
  <rect x="140" y="165" width="207" height="14" fill="#526cfe" rx="2" />
  <text x="352" y="176" font-size="11" fill="#897966">  0.068</text>
  <rect x="140" y="183" width="193" height="14" fill="#8484d5" rx="2" />
  <text x="338" y="194" font-size="11" fill="#897966">  0.052</text>
  <rect x="140" y="201" width="189" height="14" fill="#b69dac" rx="2" />
  <text x="334" y="212" font-size="11" fill="#897966">  0.048</text>
  <rect x="140" y="219" width="181" height="14" fill="#E8B583" rx="2" />
  <text x="326" y="230" font-size="11" fill="#897966">  0.040</text>
  <text x="120" y="295" text-anchor="end" font-size="13" font-weight="bold" fill="#897966">medium</text>
  <rect x="140" y="260" width="491" height="14" fill="#526cfe" rx="2" />
  <text x="636" y="271" font-size="11" fill="#897966">  22.171</text>
  <rect x="140" y="278" width="483" height="14" fill="#8484d5" rx="2" />
  <text x="628" y="289" font-size="11" fill="#897966">  19.013</text>
  <rect x="140" y="296" width="480" height="14" fill="#b69dac" rx="2" />
  <text x="625" y="307" font-size="11" fill="#897966">  18.012</text>
  <rect x="140" y="314" width="470" height="14" fill="#E8B583" rx="2" />
  <text x="615" y="325" font-size="11" fill="#897966">  14.437</text>
  <text x="120" y="390" text-anchor="end" font-size="13" font-weight="bold" fill="#897966">simple</text>
  <rect x="140" y="355" width="598" height="14" fill="#526cfe" rx="2" />
  <text x="743" y="366" font-size="11" fill="#897966">  199.757</text>
  <rect x="140" y="373" width="604" height="14" fill="#8484d5" rx="2" />
  <text x="749" y="384" font-size="11" fill="#897966">  224.267</text>
  <rect x="140" y="391" width="598" height="14" fill="#b69dac" rx="2" />
  <text x="743" y="402" font-size="11" fill="#897966">  196.310</text>
  <rect x="140" y="409" width="568" height="14" fill="#E8B583" rx="2" />
  <text x="713" y="420" font-size="11" fill="#897966">  108.151</text>
  <line x1="140" y1="60" x2="140" y2="440" stroke="#897966" stroke-width="1.5" />
  <rect x="200" y="480" width="12" height="12" fill="#526cfe" rx="2" />
  <text x="216" y="491" font-size="12" fill="#897966">Cascara</text>
  <rect x="330" y="480" width="12" height="12" fill="#8484d5" rx="2" />
  <text x="346" y="491" font-size="12" fill="#897966">lsLenient</text>
  <rect x="460" y="480" width="12" height="12" fill="#b69dac" rx="2" />
  <text x="476" y="491" font-size="12" fill="#897966">lsStrict</text>
  <rect x="590" y="480" width="12" height="12" fill="#E8B583" rx="2" />
  <text x="606" y="491" font-size="12" fill="#897966">SnakeYAML</text>
</svg>